<svg width="1254" height="1254" viewBox="0 0 1254 1254" fill="none" xmlns="http://www.w3.org/2000/svg">
<g clip-path="url(#clip0_1_2)">
<path d="M183.375 -0.193554C194.019 -1.34073 219.901 -0.506847 231.715 -0.501467L327.683 -0.513524L644.776 -0.521173L938.493 -0.524543L1024.18 -0.553519C1043.35 -0.557085 1064.37 -1.43804 1083.18 1.15244C1169.16 12.9878 1242.38 86.057 1252.37 173.202C1254.72 193.715 1253.88 215.898 1253.86 236.614L1253.88 330.3L1253.89 648.2L1253.9 939.51L1253.9 1024.58C1253.9 1043.99 1254.6 1065.97 1252.12 1085.01C1247.76 1118.42 1233 1151.27 1212.25 1177.63C1179 1220.18 1130.07 1247.4 1076.57 1253.11C1058.86 1254.77 1032.8 1254.05 1014.35 1254.04L909.096 1254.02L573.93 1254.03L305.36 1254.02L227.243 1254.03C207.939 1254.03 187.721 1254.83 168.668 1252.15C95.1106 1241.51 32.5127 1188.55 8.66038 1117.9C-3.27706 1082.53 -0.762383 1052 -0.742669 1015.72L-0.715547 909.354L-0.728948 567.301L-0.732426 301.849L-0.746921 225.824C-0.745181 206.584 -1.48574 186.519 1.23909 167.543C6.574 132.285 21.5264 99.2084 44.4325 71.9929C79.2087 30.1021 129.295 4.08032 183.375 -0.193554Z" fill="#0D182E"/>
<path d="M321.076 193.003C339.908 171.268 363.608 156.775 392.828 156.298C400.089 156.179 407.33 156.207 414.592 156.211L460.433 156.26L623.31 156.258L787.152 156.247L836.332 156.208C868.88 156.198 884.287 155.347 912.021 175.382C923.794 182.876 935.438 197.58 943.003 209.201C949.782 216.775 963.385 236.809 970.1 246.014C979.759 259.098 989.27 272.289 998.64 285.583C1002.29 290.805 1009.72 301.196 1012.35 306.65C1017.21 316.91 1020.23 327.958 1021.26 339.279C1022.04 342.072 1021.59 370.452 1021.59 375.353L1021.63 466.959L1021.95 682.437L1021.95 742.631C1021.97 758.304 1022.44 774.139 1020.52 789.675C1022.56 795.76 1021.42 805.893 1021.31 812.503C1021.27 814.793 1020.69 815.636 1021.07 817.784C1021.95 822.072 1022.02 839.061 1021.62 843.875C1021.79 850.102 1022.4 868.286 1021.68 873.676C1021.93 915.875 996.887 935.582 968.933 961.297C940.065 987.849 921.378 999.61 881.452 999.752L517.565 999.739L420.061 999.759C397.898 999.765 359.31 1002.05 339.108 996.172C310.706 987.914 281.012 957.95 259.848 936.86C243.141 920.208 232.95 901.59 230.654 877.847C230.452 876.544 230.458 874.117 230.414 872.71C230.192 867.598 230.048 819.788 231.275 817.167C230.511 809.409 230.057 800.178 231.999 792.601C229.46 773.607 230.095 759.309 230.092 740.224L230.08 676.729L230.246 457.465L230.262 374.246C230.248 367.596 229.791 341.535 230.612 337.355C233.691 311.927 241.465 302.753 255.841 282.709L285.947 241.015C289.613 235.942 303.498 215.83 306.754 212.538C311.328 205.968 315.896 199.074 321.076 193.003Z" fill="#F6F7F9"/>
<path d="M244.601 826.919C248.937 820.459 258.021 802.278 262.16 794.48L297.188 728.011C300.006 722.589 310.521 701.434 313.541 698.201C323.319 719.79 336.75 735.426 358.385 745.905C361.413 747.314 364.492 748.613 367.615 749.801C375.369 752.658 383.511 754.307 391.759 754.691C416.405 755.97 450.344 754.963 475.803 754.989L647.232 754.963L786.797 754.976L831.802 754.957C856.644 754.931 868.865 756.132 892.07 745.334C894.107 751.704 902.577 766.235 906.199 772.813L934.574 823.926C940.981 835.432 947.337 846.964 953.621 858.534C956.039 862.969 959.874 870.644 962.349 874.631C983.059 861.644 996.654 846.431 1008.33 824.997C1014.55 813.18 1018.05 802.519 1020.52 789.48C1022.56 795.571 1021.42 805.713 1021.31 812.33C1021.27 814.622 1020.69 815.466 1021.07 817.615C1021.95 821.907 1022.02 838.912 1021.62 843.73C1021.79 849.963 1022.4 868.163 1021.68 873.559C1021.93 915.797 996.879 935.523 968.917 961.261C940.04 987.837 921.347 999.609 881.409 999.752L517.411 999.739L419.877 999.758C397.708 999.765 359.108 1002.05 338.9 996.168C310.49 987.902 280.787 957.911 259.616 936.802C242.903 920.134 232.71 901.499 230.413 877.734C230.211 876.429 230.217 874.001 230.173 872.592C229.95 867.475 229.807 819.621 231.034 816.998C230.269 809.232 229.816 799.993 231.758 792.409C234.759 805.687 237.725 815.005 244.601 826.919Z" fill="#202A3C"/>
<path d="M1020.52 789.201C1022.56 795.299 1021.42 805.455 1021.31 812.08C1021.27 814.375 1020.69 815.221 1021.07 817.373C1021.95 821.67 1022.02 838.698 1021.62 843.522C1021.79 849.764 1022.4 867.988 1021.68 873.391C1021.93 915.685 996.879 935.437 968.917 961.209C940.04 987.821 921.347 999.608 881.409 999.751L517.411 999.738L419.877 999.758C397.708 999.764 359.108 1002.05 338.9 996.162C310.49 987.886 280.787 957.855 259.616 936.718C242.903 920.028 232.71 901.368 230.413 877.572C230.211 876.265 230.217 873.833 230.173 872.422C229.95 867.299 229.807 819.382 231.034 816.755C230.269 808.979 229.816 799.727 231.758 792.133C234.759 805.429 237.725 814.759 244.601 826.689C255.469 847.391 269.556 862.403 289.367 874.724C316.387 893.02 345.473 890.374 376.16 890.354L438.595 890.315L668.709 890.322L833.407 890.328L885.618 890.354C917.138 890.393 934.013 891.466 962.349 874.464C983.059 861.461 996.654 846.227 1008.33 824.765C1014.55 812.932 1018.05 802.256 1020.52 789.201Z" fill="#2B62DB"/>
<path d="M1020.82 789.201C1022.86 795.279 1021.72 805.402 1021.61 812.005C1021.57 814.293 1020.99 815.135 1021.37 817.28C1010.79 869.875 964.294 911.732 909.821 912.082C903.524 912.121 897.222 912.115 890.925 912.115L837.974 912.089L655.162 912.095H435.509L368.513 912.102C356.172 912.102 342.174 912.588 330.036 911.408C283.29 906.852 237.376 863.356 230.68 816.665C229.915 808.914 229.46 799.693 231.404 792.123C234.408 805.376 237.377 814.675 244.258 826.567C255.135 847.2 269.234 862.164 289.061 874.444C316.103 892.68 345.213 890.042 375.925 890.023L438.412 889.984L668.716 889.99L833.549 889.997L885.803 890.023C917.349 890.062 934.238 891.131 962.598 874.185C983.325 861.224 996.931 846.04 1008.62 824.649C1014.85 812.854 1018.34 802.213 1020.82 789.201Z" fill="#0D182E"/>
<path d="M230.173 872.288C229.95 867.126 229.807 818.847 231.034 816.201C237.726 863.399 283.612 907.367 330.33 911.973C342.461 913.165 356.45 912.674 368.783 912.674L435.738 912.667H655.258L837.959 912.661L890.878 912.687C897.17 912.687 903.469 912.693 909.762 912.654C964.202 912.3 1010.67 869.989 1021.24 816.823C1022.12 821.153 1022.19 838.31 1021.79 843.17C1017.57 850.546 1015.35 860.608 1010.91 868.43C995.948 894.777 969.908 918.176 940.612 926.384C916.963 933.001 886.842 930.878 861.975 930.872L784.492 930.845L522.533 930.839L401.105 930.852C379.319 930.872 355.895 931.808 334.304 930.367C283.964 927.007 247.217 889.844 230.788 843.858C230.664 849.531 230.995 868.135 230.173 872.288Z" fill="#0E35A5"/>
<path d="M1022.02 873.201C1022.28 915.558 997.201 935.339 969.214 961.151C940.309 987.802 921.599 999.607 881.624 999.751L517.288 999.738L419.664 999.757C397.474 999.764 358.838 1002.06 338.611 996.156C310.175 987.867 280.444 957.791 259.254 936.622C242.526 919.907 232.323 901.22 230.023 877.388L230.616 875.024C231.51 875.486 232.842 881.614 233.307 883.183C236.775 895.249 242.166 906.663 249.269 916.977C264.433 938.869 298.571 967.747 320.818 983.101C339.72 996.137 363.035 995.818 385.101 995.753L427.744 995.688L573.082 995.727L798.266 995.701L853.875 995.74C871.32 995.759 893.295 997.048 909.702 992.686C919.18 990.159 928.232 986.226 936.567 981.024C961.175 965.754 994.35 933.627 1009.65 908.18C1015.21 898.954 1018.69 878.208 1022.02 873.201Z" fill="#4F8BFC"/>
<path d="M245.023 827.146C249.329 820.674 258.351 802.461 262.462 794.649L297.248 728.063C300.047 722.632 310.489 701.44 313.488 698.201C323.199 719.828 336.537 735.491 358.023 745.989C334.72 788.418 312.75 832.798 289.481 875.201C269.807 862.875 255.817 847.856 245.023 827.146Z" fill="#343D50"/>
<path d="M932.63 209.48C932.417 206.174 932.075 204.973 930.915 201.864L931.347 201.201C936.602 203.692 939.975 209.825 942.954 210.252C949.738 217.807 963.351 237.793 970.07 246.976C979.737 260.029 989.255 273.188 998.631 286.45C1002.28 291.66 1009.72 302.026 1012.35 307.467C1017.22 317.702 1020.23 328.724 1021.27 340.018C1022.05 342.804 1021.6 371.116 1021.59 376.005L1021.64 467.391L1021.96 682.353L1021.96 742.402C1021.97 758.037 1022.45 773.834 1020.53 789.333C1018.05 802.328 1014.56 812.954 1008.34 824.732C996.651 846.095 983.051 861.258 962.332 874.201C959.856 870.227 956.019 862.578 953.601 858.158C947.313 846.626 940.955 835.132 934.545 823.665L906.159 772.721C902.535 766.165 894.061 751.682 892.023 745.334C913.278 733.756 926.672 718.516 936.016 696.293C938.537 688.468 941.258 678.101 941.419 669.85C941.89 645.763 941.252 621.068 940.826 596.99L939.536 487.513L937.628 305.744C937.344 281.471 937.905 253.473 936.925 229.639C935.751 227.098 934.371 214.599 932.63 209.48Z" fill="#343D50"/>
<path d="M936.276 697.201C940.79 701.366 962.598 742.296 967.476 751.091C976.772 767.535 985.97 784.036 995.071 800.59C997.315 804.755 1006.3 822.77 1009.02 824.985C997.27 846.238 983.589 861.324 962.748 874.201C960.257 870.248 956.397 862.637 953.965 858.24C947.64 846.766 941.244 835.332 934.797 823.923L906.242 773.239C902.597 766.717 894.073 752.308 892.023 745.992C913.404 734.473 926.876 719.311 936.276 697.201Z" fill="#40495D"/>
<path d="M932.751 209.429C932.537 206.143 932.193 204.95 931.023 201.86L931.459 201.201C936.752 203.676 940.149 209.771 943.15 210.195C949.982 217.704 963.693 237.565 970.461 246.691C980.196 259.662 989.783 272.739 999.226 285.919C1002.9 291.096 1010.39 301.397 1013.04 306.804C1017.94 316.976 1020.98 327.929 1022.02 339.153L1021.54 340.201L1020.87 340L1019.86 336.698C1018.69 332.811 1017.97 330.926 1016.13 327.33C1014.09 323.375 1011.73 319.588 1009.07 316.005C1003.21 308.122 940.441 228.791 937.609 227.864L937.077 229.462C935.895 226.937 934.505 214.515 932.751 209.429Z" fill="#7D8395"/>
<path d="M322.175 193.739L325.023 191.201C324.981 194.078 320.009 203.446 318.497 207.493C316.743 212.19 315.52 222.669 314.473 225.482C312.842 249.492 313.354 281.278 312.986 305.787L310.801 463.159L308.876 595.069C308.44 620.129 307.795 645.841 308.151 670.917C308.26 678.635 311.197 691.332 313.969 698.518C310.943 701.751 300.404 722.899 297.58 728.319L262.474 794.77C258.325 802.566 249.221 820.742 244.876 827.201C237.984 815.289 235.011 805.974 232.004 792.7C229.459 773.693 230.095 759.387 230.092 740.289L230.08 676.753L230.247 457.347L230.263 374.074C230.248 367.42 229.791 341.342 230.613 337.16C233.701 311.715 241.494 302.535 255.907 282.478L286.089 240.757C289.764 235.681 303.684 215.555 306.949 212.262C311.534 205.687 316.114 198.788 321.307 192.714L322.175 193.739Z" fill="#40495D"/>
<path d="M322.157 193.748L325.023 191.201C324.981 194.089 319.978 203.492 318.456 207.554C316.691 212.268 315.46 222.786 314.407 225.61C312.509 226.595 310.81 228.867 309.508 230.574C286.243 261.073 262.101 290.938 238.948 321.504C236.391 324.88 232.566 335.083 231.137 339.201C230.109 338.487 230.504 338.968 230.023 337.703C233.13 312.164 240.972 302.95 255.475 282.818L285.846 240.942C289.544 235.847 303.551 215.646 306.836 212.34C311.45 205.741 316.059 198.817 321.284 192.72L322.157 193.748Z" fill="#7D8395"/>
<path d="M321.168 194.201L322.023 195.197C319.555 198.692 310.843 212.394 307.023 213.201C311.54 206.811 316.053 200.105 321.168 194.201Z" fill="#F6F7F9"/>
<path d="M912.023 175.201C924.183 182.957 936.21 198.174 944.023 210.201C940.949 209.758 937.468 203.395 932.043 200.811L931.598 201.499C932.796 204.725 933.148 205.971 933.368 209.401C927.584 193.053 919.391 187.212 912.023 175.201Z" fill="#B9BAC6"/>
<path d="M421.97 175.305L729.976 175.552L816.865 175.608C846.528 175.603 875.276 170.905 898.16 193.912C907.318 203.104 913.292 215.016 915.212 227.892C917.01 239.259 916.417 262.628 916.585 275.14L917.86 366.739L920.522 560.243C921.218 592.962 921.721 625.688 922.023 658.41C922.004 687.893 910.353 711.398 884.801 727.075C865.726 738.778 846.696 737.175 825.359 737.071L520.965 736.305L433.544 736.013C419.702 735.994 398.78 737.071 385.568 734.981C350.08 729.366 324.145 695.91 325.046 659.897C326.112 617.327 326.88 574.343 327.792 531.576L331.096 353.906L332.55 273.605C332.705 263.424 332.747 236.621 334.217 227.877C336.304 214.91 342.449 202.953 351.757 193.75C372.714 172.933 395.289 175.245 421.97 175.305Z" fill="#343D50"/>
<path d="M510.57 294.614C519.169 294.586 559.649 292.708 564.486 297.197C566.594 299.153 567.372 301.467 567.679 304.271C569.033 316.624 567.842 337.275 567.741 350.327L567.191 443.731C613.554 397.144 657.582 347.775 703.712 300.757C714.025 290.242 760.649 296.857 776.309 295.285C779.901 294.924 782.766 297.125 783.576 300.84C782.156 304.978 744.373 344.116 738.597 350.277L660.937 434.023C669.926 447.707 682.437 464.056 692.242 477.797L753.433 564.279L780.736 603.439C785.259 609.991 789.957 616.512 794.063 623.331C797.147 628.454 792.231 632.699 787.451 632.888C779.232 633.206 770.789 633.232 762.551 633.128C749.97 633.018 737.472 633.499 724.923 632.478C714.989 631.672 710.292 621.179 704.856 613.339L686.832 587.412C663.359 553.754 637.155 514.451 612.674 481.891C600.269 494.738 586.648 506.707 574.139 519.485C571.498 522.182 568.847 524.536 566.597 527.607L566.345 591.456C566.279 602.162 566.409 612.832 565.841 623.539C565.231 635.026 554.843 632.888 546.635 633.018C535.852 633.187 525.046 633.148 514.264 633.2C509.22 633.226 504.083 632.797 500.425 628.981C498.163 619.996 499.281 590.666 499.436 579.436L500.156 513.543L501.422 359.67C501.652 341.534 501.626 323.317 501.855 305.183C501.881 303.134 502.182 301.388 503.195 299.622C504.97 296.526 507.413 295.65 510.57 294.614Z" fill="#F6F7F9"/>
<path d="M230.023 908.201C242.439 949.31 257.587 954.971 286.203 982.733C330.452 1025.65 369.054 1017.45 426.348 1017.39L555.765 1017.42L765.485 1017.41L841.408 1017.45C864.727 1017.46 898.392 1019.32 919.692 1012.77C928.516 1010.02 936.96 1006.15 944.811 1001.26C953.512 995.815 961.421 989.261 969.123 982.488C994.003 960.613 1013.12 945.105 1022.14 911.869C1022.43 922.532 1023.82 960.044 1022.38 969.981C1021.37 995.589 1008.26 1015.46 990.564 1032.92C968.271 1054.92 933.103 1088.57 903.011 1097.62C881.343 1104.14 835.28 1101.78 811.058 1101.79L702.385 1101.77L385.631 1101.75C363.418 1101.54 344.258 1098.23 326.19 1084.17C301.837 1065.22 277.26 1043.89 254.487 1023.07C237.409 1007.45 229.81 982.876 230.163 960.199C229.606 942.517 231.004 925.631 230.023 908.201Z" fill="#0E35A5"/>
<path d="M230.023 908.201C242.439 949.143 257.587 954.781 286.203 982.43C330.452 1025.18 369.054 1017.01 426.348 1016.95L555.765 1016.97L765.485 1016.96L841.408 1017.01C864.727 1017.01 898.392 1018.87 919.692 1012.35C928.516 1009.61 936.96 1005.76 944.811 1000.88C953.512 995.459 961.421 988.932 969.123 982.186C994.003 960.4 1013.12 944.955 1022.14 911.854C1022.43 922.473 1023.82 959.833 1022.38 969.73C1021.84 957.236 1022.42 944.53 1022.02 931.9C1016.28 951.978 1004.87 966.863 989.655 980.948C970.942 998.269 951.751 1016.08 927.517 1025.3C905.456 1033.68 882.492 1032.08 859.386 1032.08L795.48 1032.05L603.297 1032.06L440.378 1032.07L386.275 1032.06C376.092 1032.05 365.937 1032.2 355.604 1031.73C310.935 1029.71 277.118 992.534 247.791 962.823C240.608 955.542 234.142 942.281 230.607 932.796C230.335 941.392 231.158 951.617 230.163 959.988C229.606 942.377 231.004 925.56 230.023 908.201Z" fill="#032273"/>
</g>
<defs>
<clipPath id="clip0_1_2">
<rect width="1254" height="1254" fill="white"/>
</clipPath>
</defs>
</svg>
